<?xml version="1.0" encoding="UTF-8" standalone="no"?>
<svg
   version="1.0"
   width="200pt"
   height="200pt"
   viewBox="0 0 200 200"
   preserveAspectRatio="xMidYMid"
   id="svg1"
   sodipodi:docname="sea-ai-square.svg"
   inkscape:version="1.3 (0e150ed, 2023-07-21)"
   xmlns:inkscape="http://www.inkscape.org/namespaces/inkscape"
   xmlns:sodipodi="http://sodipodi.sourceforge.net/DTD/sodipodi-0.dtd"
   xmlns="http://www.w3.org/2000/svg"
   xmlns:svg="http://www.w3.org/2000/svg">
  <defs
     id="defs1" />
  <sodipodi:namedview
     id="namedview1"
     pagecolor="#ffffff"
     bordercolor="#000000"
     borderopacity="0.25"
     inkscape:showpageshadow="2"
     inkscape:pageopacity="0.0"
     inkscape:pagecheckerboard="0"
     inkscape:deskcolor="#d1d1d1"
     inkscape:document-units="pt"
     inkscape:zoom="0.885"
     inkscape:cx="133.33333"
     inkscape:cy="133.33333"
     inkscape:window-width="1312"
     inkscape:window-height="449"
     inkscape:window-x="0"
     inkscape:window-y="38"
     inkscape:window-maximized="0"
     inkscape:current-layer="svg1" />
  <g
     transform="matrix(0.1,0,0,-0.1,0,200)"
     fill="#000000"
     stroke="none"
     id="g1"
     style="fill:#999999">
    <path
       d="M 0,1000 V 0 H 1000 2000 V 1000 2000 H 1000 0 Z m 894,344 c 9,-8 16,-22 16,-29 0,-7 -7,-21 -16,-29 -13,-13 -43,-16 -170,-16 H 570 v -58 c 0,-63 -11,-82 -47,-82 -32,0 -43,28 -43,112 0,120 -4,118 215,118 154,0 186,-3 199,-16 z m 610,-6 c 19,-26 22,-158 6,-189 -12,-21 -50,-25 -68,-7 -7,7 -12,38 -12,70 v 58 h -154 c -127,0 -157,3 -170,16 -9,8 -16,22 -16,29 0,7 7,21 16,29 13,13 45,16 199,16 179,0 184,-1 199,-22 z m -410,-308 c 18,-6 26,-17 26,-33 0,-40 -18,-47 -120,-47 -61,0 -100,4 -108,12 -20,20 -14,58 11,68 30,12 160,12 191,0 z M 558,838 c 7,-7 12,-40 12,-80 v -68 h 160 160 l 12,-25 c 22,-49 3,-54 -206,-56 -173,-2 -190,0 -203,17 -16,22 -18,176 -3,205 12,21 50,25 68,7 z m 952,-7 c 15,-29 13,-183 -3,-205 -13,-17 -30,-19 -203,-17 -209,2 -228,7 -206,56 l 12,25 h 160 160 v 68 c 0,40 5,73 12,80 18,18 56,14 68,-7 z"
       id="path1"
       style="fill:#999999" />
  </g>
</svg>
