<?xml version="1.0" standalone="no"?>
<!DOCTYPE svg PUBLIC "-//W3C//DTD SVG 20010904//EN"
 "http://www.w3.org/TR/2001/REC-SVG-20010904/DTD/svg10.dtd">
<svg version="1.0" xmlns="http://www.w3.org/2000/svg"
 width="600.000000pt" height="81.000000pt" viewBox="0 0 600.000000 81.000000"
 preserveAspectRatio="xMidYMid meet">

<g transform="translate(0.000000,81.000000) scale(0.100000,-0.100000)"
fill="#000000" stroke="none">
<path d="M145 772 c-75 -36 -115 -97 -115 -173 0 -88 38 -132 179 -205 52 -27
106 -62 122 -77 55 -54 50 -154 -10 -194 -81 -55 -221 0 -221 87 0 33 -21 53
-52 48 -21 -3 -23 -8 -23 -59 0 -46 5 -63 28 -93 39 -50 98 -78 177 -83 57 -4
72 -1 120 24 70 36 100 89 100 176 0 109 -39 155 -201 238 -105 54 -127 75
-135 130 -11 74 66 131 154 114 40 -7 92 -54 92 -83 0 -10 9 -27 19 -36 16
-14 23 -15 41 -6 19 10 22 18 17 56 -6 55 -26 87 -79 121 -54 36 -153 43 -213
15z"/>
<path d="M1880 769 c-6 -11 -31 -84 -55 -162 -24 -78 -71 -230 -104 -337 -34
-107 -61 -205 -61 -217 0 -26 44 -43 62 -25 6 6 23 48 37 94 l27 83 135 3 135
3 30 -93 c26 -83 32 -93 55 -96 14 -2 31 4 38 12 13 16 17 3 -105 396 -25 80
-58 187 -74 238 -16 51 -34 99 -40 107 -19 23 -67 19 -80 -6z m96 -299 c26
-85 49 -161 51 -167 4 -10 -21 -13 -105 -13 l-111 0 14 43 c8 23 30 96 51 162
37 121 43 139 49 133 2 -2 25 -73 51 -158z"/>
<path d="M3073 784 c-12 -5 -21 -30 -98 -279 -26 -82 -67 -214 -91 -293 -50
-157 -52 -185 -15 -190 33 -5 43 8 71 101 l26 82 136 3 136 3 29 -93 c26 -83
31 -93 54 -96 55 -6 55 13 -6 210 -31 101 -79 257 -107 348 -27 91 -56 175
-64 188 -14 21 -42 27 -71 16z m131 -467 l6 -27 -105 0 c-70 0 -105 4 -105 11
0 14 70 245 95 314 6 15 20 -18 55 -125 26 -80 50 -157 54 -173z"/>
<path d="M3731 776 c-8 -9 -11 -117 -9 -376 3 -333 4 -364 21 -374 12 -8 22
-8 35 0 16 10 17 41 20 374 2 375 1 390 -38 390 -10 0 -23 -6 -29 -14z"/>
<path d="M4836 775 c-12 -13 -16 -37 -16 -110 0 -84 2 -95 20 -105 14 -8 26
-8 40 0 17 9 20 21 20 75 l0 65 161 2 c151 3 163 4 175 24 12 17 12 23 0 40
-13 17 -30 19 -199 22 -160 3 -187 1 -201 -13z"/>
<path d="M897 774 c-4 -4 -7 -51 -7 -105 0 -84 3 -100 18 -107 19 -10 43 -5
54 12 4 6 8 37 8 69 l0 57 159 0 c171 0 186 4 179 52 l-3 23 -201 3 c-110 1
-203 -1 -207 -4z"/>
<path d="M5440 761 c-13 -25 -13 -27 6 -45 13 -13 43 -16 175 -16 l159 0 0
-65 c0 -54 3 -66 20 -75 14 -8 26 -8 40 0 18 10 20 21 20 103 0 59 -4 97 -12
105 -9 9 -68 12 -205 12 -180 0 -193 -1 -203 -19z"/>
<path d="M991 446 c-7 -8 -11 -25 -9 -38 3 -22 6 -23 112 -23 93 0 110 3 120
18 8 12 8 22 0 35 -15 24 -204 31 -223 8z"/>
<path d="M5230 446 c-6 -8 -10 -25 -8 -38 3 -22 7 -23 98 -26 118 -4 140 1
140 31 0 40 -18 47 -121 47 -72 0 -100 -4 -109 -14z"/>
<path d="M908 269 c-16 -9 -18 -26 -18 -120 0 -108 0 -110 26 -119 33 -13 335
-13 368 0 32 12 36 54 7 70 -11 5 -85 10 -170 10 l-150 0 -3 71 c-2 59 -7 74
-23 85 -14 9 -25 10 -37 3z"/>
<path d="M4838 269 c-15 -8 -18 -25 -18 -112 0 -56 5 -109 10 -117 7 -12 42
-16 182 -18 191 -4 228 3 228 41 0 43 -15 47 -182 47 l-158 0 0 69 c0 50 -4
74 -16 85 -18 19 -23 19 -46 5z"/>
<path d="M5786 254 c-3 -9 -6 -45 -6 -80 l0 -64 -159 0 c-132 0 -162 -3 -175
-16 -20 -19 -20 -24 0 -52 15 -21 20 -22 199 -22 154 0 186 3 199 16 12 12 16
37 16 109 0 113 -4 125 -40 125 -16 0 -30 -7 -34 -16z"/>
<path d="M2462 108 c-14 -14 -16 -67 -3 -86 5 -8 21 -12 37 -10 26 3 29 7 32
41 5 57 -33 88 -66 55z"/>
</g>
</svg>
