<?xml version="1.0" encoding="UTF-8" standalone="no"?>
<svg
   version="1.0"
   width="246.000000pt"
   height="293.000000pt"
   viewBox="0 0 246.000000 293.000000"
   preserveAspectRatio="xMidYMid meet"
   id="svg5"
   sodipodi:docname="shippinglab-square.svg"
   inkscape:version="1.3 (0e150ed, 2023-07-21)"
   xmlns:inkscape="http://www.inkscape.org/namespaces/inkscape"
   xmlns:sodipodi="http://sodipodi.sourceforge.net/DTD/sodipodi-0.dtd"
   xmlns="http://www.w3.org/2000/svg"
   xmlns:svg="http://www.w3.org/2000/svg">
  <defs
     id="defs5" />
  <sodipodi:namedview
     id="namedview5"
     pagecolor="#ffffff"
     bordercolor="#000000"
     borderopacity="0.25"
     inkscape:showpageshadow="2"
     inkscape:pageopacity="0.0"
     inkscape:pagecheckerboard="0"
     inkscape:deskcolor="#d1d1d1"
     inkscape:document-units="pt"
     inkscape:zoom="0.60409556"
     inkscape:cx="163.88136"
     inkscape:cy="195.33333"
     inkscape:window-width="1312"
     inkscape:window-height="449"
     inkscape:window-x="0"
     inkscape:window-y="38"
     inkscape:window-maximized="0"
     inkscape:current-layer="svg5" />
  <g
     transform="translate(0.000000,293.000000) scale(0.100000,-0.100000)"
     fill="#000000"
     stroke="none"
     id="g5"
     style="fill:#cccccc">
    <path
       d="M680 2571 c-6 -12 -10 -108 -10 -242 l0 -222 -101 -311 c-55 -171 -118 -363 -139 -426 -21 -63 -84 -257 -140 -430 -56 -173 -122 -375 -147 -448 -49 -145 -55 -196 -28 -271 33 -94 128 -185 220 -211 29 -8 293 -10 920 -8 l880 3 53 29 c93 52 164 153 178 253 5 45 -4 82 -109 404 -63 195 -151 467 -196 604 -44 138 -120 374 -169 525 l-89 275 -6 233 c-4 156 -10 238 -18 248 -10 12 -97 14 -550 14 -522 0 -539 -1 -549 -19z m1020 -296 l5 -210 87 -265 c110 -334 441 -1356 464 -1432 15 -48 15 -64 5 -97 -17 -59 -70 -121 -126 -150 l-49 -26 -846 0 c-690 0 -852 3 -884 14 -81 28 -155 123 -156 199 0 19 128 427 285 908 l285 875 0 199 0 200 463 -2 462 -3 5 -210z"
       id="path1"
       style="fill:#cccccc" />
    <path
       d="M1195 1868 c-3 -7 -9 -40 -13 -73 l-7 -60 -54 -2 c-52 -2 -70 -12 -71 -40 0 -10 47 -13 201 -13 l200 0 -3 23 c-3 19 -10 23 -58 27 l-55 5 -10 70 -10 70 -58 3 c-40 2 -59 -1 -62 -10z"
       id="path2"
       style="fill:#cccccc" />
    <path
       d="M915 1621 c-42 -18 -50 -39 -53 -150 -2 -58 1 -132 5 -164 l8 -57 131 64 c72 35 157 75 191 90 l60 27 139 -66 c76 -37 163 -78 192 -91 l52 -24 0 169 c0 158 -1 169 -21 187 -20 18 -42 19 -353 21 -182 1 -340 -2 -351 -6z m643 -158 c2 -46 0 -83 -3 -83 -3 0 -51 23 -106 50 -55 28 -123 60 -150 71 l-51 19 -145 -70 c-80 -38 -149 -67 -154 -64 -11 6 -12 147 -2 158 4 4 142 5 308 4 l300 -3 3 -82z"
       id="path3"
       style="fill:#cccccc" />
    <path
       d="M960 1231 c-145 -71 -266 -133 -267 -138 -6 -16 75 -237 88 -242 7 -2 29 -19 51 -39 21 -19 40 -33 42 -31 2 2 -16 62 -40 133 -24 71 -44 132 -44 136 0 6 126 68 396 197 l70 33 230 -111 c126 -61 231 -113 233 -115 2 -2 -17 -63 -43 -136 -46 -131 -46 -132 -19 -106 16 14 42 33 58 41 26 13 35 31 69 127 22 63 35 115 30 119 -25 22 -541 261 -563 260 -14 0 -145 -58 -291 -128z"
       id="path4"
       style="fill:#cccccc" />
    <path
       d="M1185 640 c-3 -6 1 -7 9 -4 18 7 21 14 7 14 -6 0 -13 -4 -16 -10z"
       id="path5"
       style="fill:#cccccc" />
  </g>
</svg>
